<?xml version="1.0" standalone="no"?>
<!DOCTYPE svg PUBLIC "-//W3C//DTD SVG 20010904//EN"
 "http://www.w3.org/TR/2001/REC-SVG-20010904/DTD/svg10.dtd">
<svg version="1.0" xmlns="http://www.w3.org/2000/svg"
 width="1014.000000pt" height="1014.000000pt" viewBox="0 0 1014.000000 1014.000000"
 preserveAspectRatio="xMidYMid meet">
<metadata>
Created by potrace 1.14, written by Peter Selinger 2001-2017
</metadata>
<g transform="translate(0.000000,1014.000000) scale(0.100000,-0.100000)"
fill="#000000" stroke="none">
<path d="M0 5070 l0 -5070 5070 0 5070 0 0 5070 0 5070 -5070 0 -5070 0 0
-5070z m8347 1581 c139 -31 235 -65 378 -136 115 -57 284 -170 293 -195 3 -9
-277 -482 -298 -503 -4 -5 -33 14 -65 43 -105 95 -237 165 -390 206 -106 29
-362 27 -465 -3 -270 -78 -481 -253 -599 -495 -72 -146 -95 -249 -94 -418 1
-165 21 -250 93 -397 116 -236 312 -404 570 -489 81 -27 94 -28 270 -28 171 0
191 2 266 26 141 45 261 114 354 202 28 27 55 45 59 40 17 -19 301 -492 301
-501 0 -12 -118 -101 -205 -154 -93 -57 -192 -101 -306 -137 -180 -57 -245
-67 -469 -67 -178 0 -218 3 -309 23 -604 135 -1048 579 -1183 1183 -20 91 -23
130 -23 309 1 174 4 221 24 310 135 627 643 1101 1283 1199 105 16 409 6 515
-18z m-5356 -10 c132 -30 232 -67 364 -132 115 -56 268 -157 288 -189 7 -12
-30 -80 -143 -268 l-152 -253 -55 51 c-30 27 -91 72 -135 99 -372 229 -849
169 -1149 -146 -121 -127 -198 -263 -241 -421 -28 -107 -30 -315 -4 -426 79
-342 344 -615 684 -708 62 -17 106 -21 222 -21 158 0 242 16 361 69 l59 27 0
418 0 419 285 0 285 0 0 -579 0 -579 -47 -40 c-153 -127 -382 -237 -603 -289
-156 -37 -419 -43 -585 -15 -596 103 -1082 552 -1223 1132 -52 213 -56 500 -9
700 68 288 200 524 411 735 229 229 494 368 806 425 143 27 451 22 581 -9z
m3179 -296 l0 -295 -702 0 c-804 0 -763 4 -854 -85 -66 -65 -88 -128 -82 -229
8 -117 62 -195 168 -245 l55 -26 410 -6 c455 -6 457 -7 611 -79 111 -51 187
-105 265 -186 109 -115 169 -218 216 -371 23 -78 26 -105 27 -238 0 -115 -4
-165 -18 -215 -93 -338 -350 -583 -681 -651 -83 -17 -147 -19 -787 -19 l-698
0 0 295 0 294 698 3 697 3 53 29 c92 51 143 133 150 242 4 62 1 79 -22 130
-32 69 -64 106 -126 142 l-45 27 -405 6 c-368 6 -412 8 -482 27 -275 75 -466
229 -592 479 -65 131 -81 206 -80 388 0 147 2 167 28 245 106 323 348 543 677
615 51 11 211 14 792 14 l727 1 0 -295z m2470 -3005 c0 -20 -7 -20 -3505 -20
-3498 0 -3505 0 -3505 20 0 20 7 20 3505 20 3498 0 3505 0 3505 -20z m-3332
-402 c7 -7 12 -21 12 -32 0 -16 -252 -728 -362 -1023 -14 -40 -26 -55 -44 -59
-29 -8 -54 11 -54 40 0 20 359 1027 381 1067 11 21 49 25 67 7z m-567 -278
c12 -7 19 -21 19 -39 0 -22 -13 -38 -64 -79 -131 -107 -130 -208 3 -316 46
-38 61 -56 61 -76 0 -30 -16 -50 -41 -50 -10 0 -88 59 -173 131 -118 99 -156
137 -156 154 0 16 17 37 53 67 28 23 98 82 155 130 56 49 107 88 113 88 6 0
19 -5 30 -10z m815 -56 c44 -36 114 -95 157 -131 55 -46 77 -71 77 -88 0 -17
-37 -54 -151 -150 -83 -69 -157 -129 -164 -131 -25 -10 -55 15 -55 45 0 22 13
38 64 79 131 107 130 208 -3 316 -48 39 -61 56 -61 77 0 27 21 48 46 49 7 0
47 -30 90 -66z"/>
</g>
</svg>
